<svg xmlns="http://www.w3.org/2000/svg" viewBox="0 0 300 100"><defs><style>.cls-1{fill:#1d1d1b;}.cls-2{fill:#fff;stroke:#da7d7e;stroke-miterlimit:10;stroke-width:4px;}</style></defs><g id="Calque_2" data-name="Calque 2"><path class="cls-1" d="M124.41,0A7.11,7.11,0,0,1,131,3.72c2.37,5.08-3.73,13-9.23,11.85a.43.43,0,0,1,.09-.84,8.63,8.63,0,0,0,5.75-3.05c1.27-1.52,3.14-4.82,1.36-6.6-2.54-2.63-6.69.84-8.81,2.28C110.1,14.47,105,28.69,109.42,33.86c2.8,3.38,8.3,2.2,11.69.59,6.17-2.79,11.34-7.11,16-11.77.51-.5,1.19.26.68.68-6.35,5.84-12.27,12.36-21.16,14.39-6.94,1.53-13.12-1.86-13.54-11.6C102.57,13.54,116.11.68,123.56,0Z"/><path class="cls-1" d="M142.77,8.8a6.84,6.84,0,0,1,2.63.85c3.64,2,4.91,7.19,4.74,11.85a16.76,16.76,0,0,0,3.3-.93,4.45,4.45,0,0,1,.51-.68c-1.87-3.81-1.27-9.82,4.14-9.73,6.44.08,7.88,9,7.54,14a10.92,10.92,0,0,0,5-1.69c.76-.51,1.52.85.68,1.27a14.19,14.19,0,0,1-5.84,1.78,11,11,0,0,1-3,6.68c-5.16,5.25-12.86-.59-9.9-9.56-.93.25-1.69.42-2.62.59-.76,6.52-4.4,9.91-8,10.75-3.14.68-6.18-1.86-7.11-4.74a12.32,12.32,0,0,1,1.69-10C135.07,15,138.29,8.72,142.77,8.8Zm-.08,1.36c-3.05,0-5.93,3.72-5.08,7.78,5.67-6.09,8.89,2.46,4.74,2.46a11.9,11.9,0,0,0-.93,1.52c2.2.68,5,.26,7.28-.17a20.1,20.1,0,0,0-.85-6.51C146.67,11.51,144.72,10.07,142.69,10.16Zm-1.78,13.12c-1.52,4.23-1.69,9.73,3.13,7.53,2.88-1.27,4.24-4.23,4.57-7.36A15.91,15.91,0,0,1,140.91,23.28Zm16.93-11.6a3.44,3.44,0,0,0-3.22,2.37,5.38,5.38,0,0,0,.43,4.57A6.56,6.56,0,0,1,157,17.44v.17a1.72,1.72,0,0,1,2.37,1.69,13.49,13.49,0,0,1-.84,3.05,12.17,12.17,0,0,0,5.33,1.77C164.87,16.08,161,11.68,157.84,11.68ZM157.92,24c-.76,2.46-.76,6.78,1.87,6.69,2.28,0,3.38-2.71,3.89-5.08A13.48,13.48,0,0,1,157.92,24Z"/><path class="cls-1" d="M172.31,1.78c1.86,0,3.81,1.61,3.05,3.55-1.44,3.81-2,12.45-2,17.52,4-3.38,4.91-6.85,7.45-9.39,1.26-1.27,3,.76,1.94,1.69.68-.59-.76,5.5-7.62,10.16,1.7,1.69,3.14,4.15,4.15,5.08,3.3,3,5.76-2,7.28-4.32a7.25,7.25,0,0,1,3.89-3.55c1-.34,1.44,1.18.43,1.6-4.32,1.7-4.57,9-9.9,9.23-4,.17-6.35-4.06-7.54-5.5.26,5.67,1,7.7.93,11.09,0,2.45-3.21,2.62-4.06.59-2.37-6.43-4.4-26,0-36.31A2,2,0,0,1,172.31,1.78Z"/><path class="cls-1" d="M193.13,26.66a1.65,1.65,0,0,1,1.7,1.36c.59,3.38-.6,8-3.9,8.8-1.44.34-2.37-1.69-1-2.37,2.87-1.52,1.35-4.15,1.18-5.92A1.88,1.88,0,0,1,193.13,26.66Z"/><path class="cls-1" d="M20.94,46.64a3.15,3.15,0,0,1,2.87,2.12,83.69,83.69,0,0,1,9.4-.34c.93.08.93,1.52,0,1.52-3-.08-6.09-.08-9.23.09-.17,1.52-3.13,6.18-5,16.59,2.54-.43,5.42-.85,7.87-.26a.55.55,0,0,1,0,1c-2.45.93-5.5,1-8.21,1.27-.59,3.89-1.18,13,.34,16.42,1.69,3.64,6.52.51,8.47-1.27,4.82-4.57,7.53-10.33,13.2-14.56.59-.42,1.35.59.76,1C36.68,74.32,34.23,78.38,30.25,83c-3.3,3.81-8.8,8.89-13.88,5.16-5.34-3.81-4.32-13-3.56-18.62a45.9,45.9,0,0,0-4.91,1c-1.1.51-2-1.6-.59-1.94,1.86-.43,3.81-.76,5.75-1.19a73.52,73.52,0,0,1,4.66-16.84,52.27,52.27,0,0,0-8.89,2.2c-.67.59-1,.59-2,.59-1.35,0-1.69-2.2-.25-2.45,4-.51,7.87-1.1,11.76-1.61l.51-1.27A2.3,2.3,0,0,1,20.94,46.64Z"/><path class="cls-1" d="M64.7,47.4a3,3,0,0,1,3,2.63,12.68,12.68,0,0,1,.08,2.54c2.29-1,4.74-2.37,7.11-2.21,2,.17,4.4,1.87,3.56,4.07a1.13,1.13,0,0,1-1.7.68c-2.87-1.87-2.2-3.56-9-1.44a95.66,95.66,0,0,0-.25,11.08c0,4.66-.76,9.23-.59,13.89.08,2.2,1.1,7.7,4.31,4.14,2.2-2.54,1.7-9,6.94-13.54.77-.59,1.78.51,1.1,1.1C75,73.81,75.19,78.3,73.08,83s-5.08,4.66-7.37.68c-1.27-2.12-1.69-4.66-2.2-7s-.93-4.82-1.35-7.27c-.6,3.55-1.44,9.31-5.25,10.66s-6.77-4.15-7.37-8.13c-1,2-2,4.15-3.89,5.51a4.61,4.61,0,0,1-5.33.42c-1.86-1.1-2.46-3.3-2.71-5.25-1.44-10,9.23-17.77,14.3-12.44,1.44-1.52,3.56-1.27,4.24.25s-1.1,3.9-1.36,8.81c0,1.35-.17,6.6.59,7.7,1.11,1.69,2.8-.17,3.47-1.36a34,34,0,0,0,2.88-9.9c-.08-2-.08-4.48.09-10.24a50.63,50.63,0,0,1-7.2,1.1c-3,.17-6.77.42-9.31-1.61-1.44-1.1-3.21-3.81-1.78-5.42a.94.94,0,0,1,1.19-.17c.08,0,.17.09.25.09a.8.8,0,0,1,.26,1c-.43.68,1.18,3.31,4.4,4.24,3.47,1,8.72.51,12.19-.26a23.71,23.71,0,0,1,.68-5A2.37,2.37,0,0,1,64.7,47.4ZM47.51,64.16c-1.94,0-5.25,5.08-6,8.64-.67,3.3,1.87,4.74,4.32,2.28,1.44-1.44,2.62-4.06,3.47-5.92a20.68,20.68,0,0,1,.42-3.9C49,64.84,48.27,64.16,47.51,64.16Z"/><path class="cls-1" d="M113.19,46.64c4.83-.08,7.87,5.16,4.91,10.58-2.45,4.23-6.52,7.53-10.58,10.33a27.43,27.43,0,0,0,6.26,8.12c3.56-3.89,2.63-5.92,3.65-8.88.08-.43.76-.6.93-.17,1.6,3.21-1.19,7.36-3.56,10,2.12,1.7,4.49,3.14,6.6,5,.68.59-.08,1.44-.84,1.35-2.8-.5-5.51-2.45-7.62-4.48-9.06,8-16.59.08-13.71-8.13a16.78,16.78,0,0,1,5.08-6.77c-1.27-5.5-1-11.85,4-15.24A8.65,8.65,0,0,1,113.19,46.64ZM106,68.56c-2.12,1.53-3.9,3.3-4.4,5.93-.85,4.91,4.48,7.79,10.32,3A32.48,32.48,0,0,1,106,68.56Zm5.33-19.3c-3.39.09-8.29,4.15-5.84,13.21,3.22-2.71,6.6-5.25,8.21-9.23C114.8,50.62,113.36,49.18,111.33,49.26Z"/><path class="cls-1" d="M163,46.64c2.62,0,5.42,1.19,6.6,3.72,2.37,5.08-3.72,13-9.22,11.86a.44.44,0,0,1,.08-.85,8.61,8.61,0,0,0,5.76-3c1.27-1.52,3.13-4.82,1.35-6.6-2.54-2.62-6.69.85-8.8,2.28C148.66,61.12,143.58,75.34,148,80.5c2.79,3.38,8.29,2.2,11.68.59,6.18-2.79,11.34-7.11,16-11.76a.48.48,0,1,1,.67.67c-6.34,5.84-12.27,12.36-21.16,14.39-6.94,1.53-13.12-1.86-13.54-11.59-.51-12.62,13-25.48,20.48-26.16Z"/><path class="cls-1" d="M181.07,60.44a5.52,5.52,0,0,1,2,.34c4.49,1.52,5.59,6.85,5,11.51a11.57,11.57,0,0,0,4.57-3c.59-.6,1.52.33.93.93a13.22,13.22,0,0,1-5.76,3.38c-.76,4.07-3.47,8.55-7.53,9.31-6.69,1.19-9.9-9.14-5-14.73A6.19,6.19,0,0,1,181.07,60.44Zm-.34.93a4.49,4.49,0,0,0-3.3,1.52,4.79,4.79,0,0,0-1.27,4.49c1.53-1.27,3.47-1.95,4.32.59a1.68,1.68,0,0,1-1.1,2.12l-.76,1a10.31,10.31,0,0,0,8,1.61C187.84,65.6,184.2,61.37,180.73,61.37Zm-2.62,10.75c-2,4.15-.85,9.65,3.39,8.12,2.54-1,4.14-3.47,4.82-6.26A10.8,10.8,0,0,1,178.11,72.12Z"/><path class="cls-1" d="M230.84,56.71a.31.31,0,0,1,.26.09c6.09.51,1.69,17,2,22.68.08,1.19.25,6.1,2.45,4.83,3.22-.85,3.89-12.61,7-15.07.59-.42,1.18.59.59.93-4,5-3,12.28-6.94,15.66-4.66,4.06-8.47-8.63-7.79-18,.68-10.41.68-7.11.68-8.46-3.56,4.48-6,9.39-5.42,20a1.32,1.32,0,0,1-2.2.93,18.09,18.09,0,0,1-5-8.63c-2.12,6.86-2.88,8.38-4.24,9.06-3.38,1.61-6-3.73-6.6-6.1-1.27-4.48-.59-7.95-.34-12.19.09-1.1.43-1.94-.76-1.1-3.13,2-5.67,10.08-6.52,13.38,1,7.19-4.48,3.38-6.09-4.4-1.52-7,1.35-12.7,5-10.84a2.24,2.24,0,0,1,1.36,2.12c-.26,2.2-1.36,2.71-1.1,7.95a20.31,20.31,0,0,0,.59,3.73c1.95-6.69,6.43-18.79,11-13.88,2.54,2.79.51,9.65.77,14.3.08,1.86.76,5.67,2.62,5.33.59-.08,1.19-1.26,1.52-1.77a21.44,21.44,0,0,0,2.37-7.62c-.76-4.57-.25-12.1,4.32-11.09a1.8,1.8,0,0,1,1.27,2.2c-1.18,3.56-.51,9.82.42,13.46.85-4.49,1.78-8.89,4.15-12.87C227.2,59.68,228.64,56.71,230.84,56.71Z"/><path class="cls-1" d="M248.53,60.1a4.73,4.73,0,0,1,4.32,3.13c1.77,5.08-3.14,9.82-7.88,9.57-.42,2.54-.67,5.24.77,7.19,1.77,2.37,4.4,1.69,6.51.25,3.73-2.62,5.84-6.68,7.54-10.83.25-.59,1.1-.17.84.34-2.37,5.42-5.58,13.71-12.78,13.8-7.36,0-9.22-9.06-7.36-14.73,1.1-3,3-6.44,5.84-8.13A4.14,4.14,0,0,1,248.53,60.1ZM249.88,64a2.08,2.08,0,0,0-1.35.6c-1.86,1.6-2.79,4.31-3.3,6.94a5.81,5.81,0,0,0,4.65-2C252.09,67.12,251.41,64,249.88,64Z"/><path class="cls-1" d="M268,58.58c4.65-.09,7.78,5.33,3.13,9.56a.59.59,0,0,1-1-.51c.26-1.52-.08-5-2.37-4.23-3.38,1.19-7.87,13.63-1.69,17.27,2.37,1.44,5.16-.68,6.85-2.2,2.8-2.37,5.42-5.34,6.52-8.89.26-.85,1.53-.25,1.1.51-2.71,4.65-6,11.93-12.1,12.86-5.5.85-9.14-4.65-10-9.39-.93-5.67,1.95-12.87,7.79-14.65A6.5,6.5,0,0,1,268,58.58Z"/><path class="cls-1" d="M282.81,46.3a2.59,2.59,0,0,1,2.79,3.39,10.93,10.93,0,0,0-.51,2.2c6.6.85,7.87-1.1,10.67-2.12,1.44-.51-.26,4.91-11,3.64-.42,2.88-1.35,17.1-.84,24,.17,1.94.5,5.41,2.54,6.43,4.31,2.29,4.57-7.36,9.9-14.47.42-.6,1.35,0,.93.59-3.39,4.57-3.81,8.21-6.6,13.2-2.2,4-6,3.9-8.64.34-3.63-4.91-4.06-11-3.89-16.84.17-5.42,1-13.29,1.19-14.14-3.22-.59-6.78-1-9.82-.17-.26.09-2.2.93-2.12.93a.57.57,0,0,1,.09,1c-2.29,1.52-4.83-4.49,5.84-4.32a31.4,31.4,0,0,1,6.26.85,23.07,23.07,0,0,1,.59-2.54A2.67,2.67,0,0,1,282.81,46.3Z"/><line class="cls-2" x1="225.92" y1="97.5" x2="77.08" y2="97.5"/></g></svg>