<svg xmlns="http://www.w3.org/2000/svg" viewBox="0 0 40.87 50"><defs><style>.cls-1{fill:#1e1c3c;}.cls-2{fill:#d97d7e;}</style></defs><g id="Calque_2" data-name="Calque 2"><g id="Calque_1-2" data-name="Calque 1"><path class="cls-1" d="M27,4.68H13.75V0H9.21V4.68H3.36a2.12,2.12,0,0,0-.44.05C1,5.16.2,8,.05,8.54.39,34.26.31,43.72.05,45.3a3.05,3.05,0,0,0,0,1.09c.3,1.74,2,2.89,3.48,3.61,19.49-.07,32.48-.08,34,0A2.27,2.27,0,0,0,38,50c1.4-.28,2.26-2,2.8-3.8V10.31a3.88,3.88,0,0,0,0-1.13c-.31-2.54-2.65-4-3.27-4.41l-5.67.07L31.76,0H27.35V4.77Z"/><path class="cls-2" d="M20.75,27.14c5.46-6.12,14.37,1.91,0,11.24-5.07-5.16-6.08-5-7.61-7.64C9.81,25,17.71,23.72,20.75,27.14Z"/><rect class="cls-2" x="7.01" y="13.3" width="26.85" height="4.24"/></g></g></svg>