<svg xmlns="http://www.w3.org/2000/svg" viewBox="0 0 50 50"><defs><style>.cls-1{fill:#fff;}</style></defs><g id="Calque_2" data-name="Calque 2"><g id="Calque_1-2" data-name="Calque 1"><path class="cls-1" d="M42.68,7.32A25,25,0,0,0,7.32,42.68,25,25,0,0,0,42.68,7.32ZM12.53,43.2a12.66,12.66,0,0,1,24.94,0,22,22,0,0,1-24.94,0Zm4.52-21.34a8,8,0,1,1,8,8A8,8,0,0,1,17.05,21.86ZM40,41.17A15.65,15.65,0,0,0,30.93,31a10.88,10.88,0,1,0-11.86,0A15.65,15.65,0,0,0,10,41.17a22.07,22.07,0,1,1,30,0Z"/></g></g></svg>