<svg xmlns="http://www.w3.org/2000/svg" viewBox="0 0 48.9 50"><defs><style>.cls-1{fill:#fff;}</style></defs><g id="Calque_2" data-name="Calque 2"><g id="Calque_1-2" data-name="Calque 1"><ellipse class="cls-1" cx="25.85" cy="28.76" rx="1.96" ry="1.92"/><path class="cls-1" d="M30,6.94a6.78,6.78,0,0,1,1-4.26l1.38-.93L31.45,0c-1.78,2.1-3,3.69-3.26,6A10.77,10.77,0,0,0,23.65,3.3c.41.2.69,1.86.85,3.34a9.6,9.6,0,0,0-8.37.7s4.12.82,5.49,3a12,12,0,0,1,2.87,1,7.46,7.46,0,0,1,8.33.33,7.32,7.32,0,0,1,1.83-.48c.87-1.79,6.23-3.92,6.23-3.92C37.74,3.61,32.7,5.23,30,6.94Z"/><path class="cls-1" d="M23.65,3.3a.05.05,0,0,0,0,0C23.52,3.26,23.54,3.26,23.65,3.3Z"/><path class="cls-1" d="M48.27,20.65a12.06,12.06,0,0,0-7.14-7.78,13.06,13.06,0,0,0-10.75.93,17.54,17.54,0,0,1,8.59.82c3.24,1.37,5,4.53,5.74,7.08a10.9,10.9,0,0,1-1.37,9.18,16.21,16.21,0,0,1-3.26,3.85L27.27,44.47c-2.05-1.45-6.43-4-9.51-7a29.39,29.39,0,0,1-6-7.81c-.2-.37-.41-.73-.62-1.11a9.56,9.56,0,0,1-1.09-7c.78-3.32,3-5.45,6.72-6.32A9,9,0,0,1,26,17.82a13.83,13.83,0,0,1,2.69,4.37,4.85,4.85,0,0,0-.34,3.12h0l2.12,7.16c.27-.08.87-.34.69-.94l-1.76-6a.37.37,0,0,1,.26-.46h0a.39.39,0,0,1,.48.26l1.79,6.07a.52.52,0,0,0,.66.34.53.53,0,0,0,.34-.65l-1.79-6.05a.37.37,0,0,1,.26-.46h.06l.05,0a.38.38,0,0,1,.47.26l1.79,6.05a.54.54,0,0,0,.64.38.52.52,0,0,0,.37-.64l-1.79-6.08a.37.37,0,0,1,.26-.46h0a.39.39,0,0,1,.48.26l1.76,6c.18.61.82.5,1.1.43l-2.11-7.16h0A5,5,0,0,0,32.15,21a17.28,17.28,0,0,0-3.35-5.49,12.6,12.6,0,0,0-12.88-3.78c-6.44,1.52-8.71,5.76-9.48,9.05a13.21,13.21,0,0,0,1.48,9.63c.21.35.41.71.6,1.06a32.88,32.88,0,0,0,6.62,8.64A136.07,136.07,0,0,0,27.46,50l15-12.44a19.91,19.91,0,0,0,4-4.69A14.58,14.58,0,0,0,48.27,20.65Z"/><path class="cls-1" d="M0,28.09c2.87,0,10.78-.1,13.65-.14h0L17.26,18h0L19.9,31.31h0L22.25,23h0l2.83,3.61h0l.36.22h0a1.77,1.77,0,0,1,1.16,1.35h0a.9.9,0,0,1,0,.46h0a3.09,3.09,0,0,1-1,1.65h0c-.22,0-.09,0-.26,0l-.15-.13a2.94,2.94,0,0,1-.82-2h0l-1.68-2h0l-3.32,9.91h0L16.83,23h0l-2.17,6.76H.81L0,28.09Z"/></g></g></svg>