<svg xmlns="http://www.w3.org/2000/svg" viewBox="0 0 206.83 151.22"><defs><style>.cls-1{font-size:60px;font-family:KissBoom, Kiss Boom;}.cls-1,.cls-3{fill:#fff;}.cls-2{fill:#1d1d1b;}.cls-4{fill:none;stroke:#fff;stroke-miterlimit:10;stroke-width:2px;}</style></defs><g id="Calque_2" data-name="Calque 2"><g id="Calque_1-2" data-name="Calque 1"><text class="cls-1" transform="translate(69.09 44.67)">Cook,<tspan class="cls-2"><tspan x="26.22" y="19.37"> </tspan></tspan><tspan x="-69.09" y="38.73">Eat &amp; Connect</tspan></text><path class="cls-3" d="M105.41,95.82a8.81,8.81,0,0,1,1.2-5.47l1.75-1.19L107.2,86.9c-2.25,2.7-3.81,4.74-4.12,7.71a13.7,13.7,0,0,0-5.73-3.47c.52.26.86,2.39,1.07,4.31a11.9,11.9,0,0,0-10.58.89s5.21,1.06,7,3.86a14.78,14.78,0,0,1,3.62,1.29,9.24,9.24,0,0,1,10.52.43,9.06,9.06,0,0,1,2.31-.63c1.09-2.29,7.87-5,7.87-5C115.13,91.54,108.77,93.62,105.41,95.82Z"/><path class="cls-3" d="M97.35,91.14l0,0C97.18,91.09,97.21,91.1,97.35,91.14Z"/><path class="cls-3" d="M128.44,113.46a15.4,15.4,0,0,0-9-10c-5.28-2.23-11.75-.19-13.58,1.19,0,0,6-1.05,10.85,1.06,4.09,1.76,6.25,5.82,7.24,9.11a14.24,14.24,0,0,1-1.73,11.8,21,21,0,0,1-4.11,5l-16.18,12.53c-2.59-1.86-8.12-5.15-12-9a37.44,37.44,0,0,1-7.55-10l-.79-1.42a12.58,12.58,0,0,1-1.38-9c1-4.27,3.84-7,8.49-8.13s8.54,0,11.59,3.33a17.84,17.84,0,0,1,3.39,5.62,6.4,6.4,0,0,0-.43,4h0l2.67,9.22c.35-.12,1.11-.44.88-1.22l-2.22-7.69a.47.47,0,0,1,.33-.59h0a.47.47,0,0,1,.59.33l2.27,7.81a.66.66,0,0,0,.84.44.68.68,0,0,0,.42-.84l-2.25-7.78a.47.47,0,0,1,.33-.6h.07l.06,0a.49.49,0,0,1,.6.33l2.25,7.78a.69.69,0,0,0,.81.49.67.67,0,0,0,.47-.83l-2.26-7.81a.49.49,0,0,1,.33-.6h0a.49.49,0,0,1,.6.33s2,7,2.22,7.69,1,.65,1.4.56L111,117.22h0a6.37,6.37,0,0,0-2.87-3.38,22.56,22.56,0,0,0-4.24-7.06c-3-3.29-8.18-6.81-16.27-4.86s-11,7.4-12,11.64A17.25,17.25,0,0,0,77.48,126c.27.46.51.91.76,1.37a42.29,42.29,0,0,0,8.36,11.12c5.52,5.47,15.56,12.78,15.56,12.78l18.91-16a25.45,25.45,0,0,0,5.09-6A19.11,19.11,0,0,0,128.44,113.46Z"/><path class="cls-3" d="M67.48,123c3.62,0,13.61-.13,17.23-.18h0l4.57-12.74h0l3.33,17.06h0l3-10.69h0l3.57,4.64h0l.45.29h0a2.25,2.25,0,0,1,1.47,1.73h0a1.08,1.08,0,0,1,0,.59h0a3.94,3.94,0,0,1-1.27,2.12h0c-.28,0-.12.05-.33,0l-.19-.17a3.8,3.8,0,0,1-1-2.52h0l-2.13-2.6h0l-4.19,12.75h0l-3.21-16.81h0L86,125.17H68.51l-1-2.14Z"/></g><g id="Calque_2-2" data-name="Calque 2"><line class="cls-4" x1="184.4" y1="124.3" x2="132.63" y2="124.3"/><line class="cls-4" x1="62.63" y1="124.22" x2="10.86" y2="124.22"/></g></g></svg>