<svg xmlns="http://www.w3.org/2000/svg" viewBox="0 0 195.46 108.7"><defs><style>.cls-1{fill:#fff;}.cls-2{fill:#fffefe;}.cls-3{fill:#1d1d1b;stroke:#fff;stroke-miterlimit:10;stroke-width:2px;}</style></defs><g id="Calque_2" data-name="Calque 2"><g id="Calque_2-2" data-name="Calque 2"><path class="cls-1" d="M102.34,65.64a6.72,6.72,0,0,1,1-4.26l1.38-.93-.91-1.75c-1.79,2.09-3,3.69-3.27,6A11,11,0,0,0,96,62c.41.21.68,1.86.85,3.35a9.62,9.62,0,0,0-8.38.7s4.12.82,5.5,3a11.64,11.64,0,0,1,2.86,1,7.44,7.44,0,0,1,8.34.33,6.72,6.72,0,0,1,1.83-.48c.86-1.79,6.22-3.92,6.22-3.92C110,62.31,105,63.92,102.34,65.64Z"/><path class="cls-2" d="M96,62h0C95.82,62,95.85,62,96,62Z"/><path class="cls-1" d="M120.57,79.35a12,12,0,0,0-7.13-7.78,13,13,0,0,0-10.76.93,17.58,17.58,0,0,1,8.6.82c3.23,1.37,5,4.53,5.73,7.08a10.91,10.91,0,0,1-1.37,9.18,16.58,16.58,0,0,1-3.25,3.85l-12.82,9.74c-2-1.45-6.43-4-9.5-7a29,29,0,0,1-6-7.82c-.21-.36-.41-.73-.63-1.1a9.61,9.61,0,0,1-1.09-7c.78-3.33,3-5.45,6.72-6.32a9,9,0,0,1,9.18,2.59A14,14,0,0,1,101,80.88a4.89,4.89,0,0,0-.35,3.13h0l2.11,7.16c.27-.08.88-.34.7-.94l-1.76-6a.36.36,0,0,1,.26-.46h0a.38.38,0,0,1,.47.25l1.79,6.08a.52.52,0,0,0,.66.34.52.52,0,0,0,.34-.65l-1.78-6a.37.37,0,0,1,.26-.47h0l.05,0a.4.4,0,0,1,.48.26l1.78,6a.54.54,0,0,0,.64.38.53.53,0,0,0,.38-.65l-1.79-6.07a.36.36,0,0,1,.26-.46h0A.38.38,0,0,1,106,83l1.76,6c.18.6.83.5,1.1.43l-2.11-7.16h0a4.92,4.92,0,0,0-2.27-2.62,17.48,17.48,0,0,0-3.35-5.49,12.62,12.62,0,0,0-12.89-3.78c-6.43,1.52-8.7,5.76-9.48,9.05a13.13,13.13,0,0,0,1.49,9.62l.6,1.06a32.6,32.6,0,0,0,6.62,8.65,135,135,0,0,0,12.31,9.94l15-12.44a20,20,0,0,0,4-4.69A14.58,14.58,0,0,0,120.57,79.35Z"/><path class="cls-1" d="M98.16,85.54a1.55,1.55,0,0,0-.31,0l-.11,0-.36-.22-2.82-3.61L92.2,90,89.57,76.74,86,86.65c-2.87,0-10.78.1-13.65.14l.82,1.66H87l2.17-6.76h0l2.54,13.07L95,84.85l1.44,1.72a1.91,1.91,0,0,0,1.73,2.82,1.93,1.93,0,1,0,0-3.85Z"/><path class="cls-1" d="M79.58,0C81.34,0,83.21.66,84,2.06c1.59,2.81-2.49,7.21-6.18,6.55-.34-.09-.23-.42.06-.46a6.23,6.23,0,0,0,3.85-1.69c.85-.84,2.1-2.67.91-3.65-1.7-1.45-4.48.47-5.9,1.26C70,8,66.59,15.87,69.54,18.73c1.87,1.87,5.56,1.21,7.83.32a37.23,37.23,0,0,0,10.71-6.5c.34-.28.8.14.46.37-4.25,3.23-8.22,6.84-14.18,8-4.65.84-8.79-1-9.07-6.41C65,7.49,74,.37,79,0Z"/><path class="cls-1" d="M91.88,4.87a5.31,5.31,0,0,1,1.76.47c2.44,1.12,3.29,4,3.18,6.55A14,14,0,0,0,99,11.38a2.13,2.13,0,0,1,.34-.38c-1.25-2.11-.85-5.43,2.78-5.38,4.31,0,5.27,5,5,7.72a8.4,8.4,0,0,0,3.35-.93c.51-.29,1,.46.45.7a11,11,0,0,1-3.91,1,5.65,5.65,0,0,1-2,3.7c-3.45,2.9-8.61-.33-6.63-5.29-.62.14-1.13.23-1.76.33a6.69,6.69,0,0,1-5.38,5.94,4.5,4.5,0,0,1-4.77-2.62,5.85,5.85,0,0,1,1.14-5.52C86.72,8.29,88.88,4.82,91.88,4.87Zm0,.75a3.57,3.57,0,0,0-3.41,4.3c3.8-3.37,6,1.36,3.18,1.36a6.54,6.54,0,0,0-.62.84A12.89,12.89,0,0,0,95.85,12a9.3,9.3,0,0,0-.56-3.6C94.49,6.37,93.19,5.57,91.83,5.62Zm-1.19,7.25c-1,2.34-1.14,5.39,2.09,4.17A4.75,4.75,0,0,0,95.8,13,12.79,12.79,0,0,1,90.64,12.87ZM102,6.46a2.31,2.31,0,0,0-2.16,1.31,2.53,2.53,0,0,0,.28,2.53,4.89,4.89,0,0,1,1.31-.66v.1c.74-.19,1.64.14,1.59.93a6.48,6.48,0,0,1-.57,1.69,9.26,9.26,0,0,0,3.57,1C106.68,8.89,104.07,6.46,102,6.46Zm0,6.79c-.51,1.36-.51,3.74,1.25,3.7,1.53,0,2.27-1.5,2.61-2.81A10.84,10.84,0,0,1,102,13.25Z"/><path class="cls-1" d="M111.67,1c1.25,0,2.55.89,2,2-1,2.11-1.36,6.88-1.36,9.69,2.67-1.87,3.29-3.79,5-5.2.85-.7,2,.42,1.31.94.45-.33-.51,3-5.11,5.62,1.14.93,2.1,2.29,2.78,2.81,2.21,1.68,3.86-1.13,4.88-2.39a4.65,4.65,0,0,1,2.61-2c.68-.18,1,.66.28.89-2.89.94-3.06,5-6.63,5.1-2.67.1-4.26-2.24-5-3,.17,3.14.68,4.26.62,6.13,0,1.36-2.15,1.46-2.72.33-1.59-3.56-3-14.37,0-20.08A1.39,1.39,0,0,1,111.67,1Z"/><path class="cls-1" d="M125.62,14.75a1.06,1.06,0,0,1,1.13.75c.4,1.87-.39,4.44-2.61,4.86-1,.19-1.58-.93-.67-1.31,1.92-.84.9-2.29.79-3.27C124.2,15.12,124.94,14.75,125.62,14.75Z"/><path class="cls-1" d="M10.26,30.22a2.12,2.12,0,0,1,1.93,1.17c2.1-.14,4.14-.24,6.3-.19.62.05.62.84,0,.84-2,0-4.09,0-6.19.05-.11.84-2.09,3.42-3.34,9.18a16.7,16.7,0,0,1,5.27-.15.29.29,0,0,1,0,.57,26.35,26.35,0,0,1-5.5.7c-.39,2.15-.79,7.21.23,9.08s4.37.28,5.67-.7c3.23-2.53,5-5.71,8.84-8.05.4-.24.91.32.52.56-3.18,2.25-4.82,4.49-7.49,7.07-2.21,2.1-5.9,4.91-9.3,2.85C3.63,51.1,4.31,46,4.82,42.9c-1.13.14-2.21.33-3.29.57-.74.28-1.36-.89-.39-1.08C2.38,42.15,3.69,42,5,41.73a35.34,35.34,0,0,1,3.12-9.31,41.25,41.25,0,0,0-5.95,1.21A1.84,1.84,0,0,1,.79,34c-.9,0-1.13-1.21-.17-1.36,2.67-.28,5.28-.6,7.89-.88.11-.24.22-.47.34-.71A1.57,1.57,0,0,1,10.26,30.22Z"/><path class="cls-1" d="M39.58,30.64a1.91,1.91,0,0,1,2,1.45,5.5,5.5,0,0,1,.06,1.4c1.53-.56,3.18-1.31,4.76-1.21,1.36.09,2.95,1,2.38,2.24a.8.8,0,0,1-1.13.38c-1.93-1-1.47-2-6-.8a44.42,44.42,0,0,0-.17,6.14c0,2.57-.51,5.1-.4,7.67.06,1.22.74,4.26,2.89,2.3,1.48-1.41,1.14-5,4.65-7.49.51-.33,1.19.28.74.61-2.83,1.91-2.72,4.4-4.14,7s-3.4,2.58-4.93.37a11.21,11.21,0,0,1-1.48-3.88c-.28-1.31-.62-2.67-.9-4-.4,2-1,5.15-3.52,5.9s-4.53-2.29-4.93-4.49a8.07,8.07,0,0,1-2.61,3,3.6,3.6,0,0,1-3.57.23,3.56,3.56,0,0,1-1.82-2.9c-1-5.52,6.18-9.83,9.59-6.88a1.88,1.88,0,0,1,2.83.14c.51.89-.74,2.15-.91,4.87,0,.75-.11,3.65.4,4.26.74.94,1.87-.09,2.33-.75a16.41,16.41,0,0,0,1.92-5.48c-.05-1.12-.05-2.48.06-5.66a42.6,42.6,0,0,1-4.82.61c-2,.09-4.53.23-6.24-.89-1-.61-2.15-2.11-1.19-3a.72.72,0,0,1,.8-.09c.05,0,.11,0,.17,0a.41.41,0,0,1,.17.56c-.29.37.79,1.82,2.95,2.34a22.84,22.84,0,0,0,8.16-.14,11.54,11.54,0,0,1,.45-2.76A1.55,1.55,0,0,1,39.58,30.64ZM28.07,39.91c-1.31,0-3.52,2.81-4,4.77S25.29,47.3,26.93,46a11.83,11.83,0,0,0,2.33-3.28,9.33,9.33,0,0,1,.28-2.15A3.5,3.5,0,0,0,28.07,39.91Z"/><path class="cls-1" d="M72.07,30.22c3.23,0,5.27,2.85,3.29,5.85-1.65,2.34-4.37,4.17-7.09,5.71a15.92,15.92,0,0,0,4.2,4.49c2.38-2.15,1.75-3.27,2.43-4.91.06-.24.51-.33.63-.09,1.07,1.77-.8,4.07-2.39,5.52,1.42.94,3,1.73,4.43,2.76.45.33-.06.8-.57.75a11.39,11.39,0,0,1-5.1-2.48c-6.07,4.4-11.12,0-9.19-4.49a9.76,9.76,0,0,1,3.4-3.75c-.85-3-.68-6.55,2.67-8.43A6.63,6.63,0,0,1,72.07,30.22ZM67.25,42.34a5.57,5.57,0,0,0-3,3.28c-.57,2.71,3,4.31,6.92,1.64A18.33,18.33,0,0,1,67.25,42.34Zm3.57-10.67c-2.27,0-5.56,2.29-3.91,7.3,2.15-1.5,4.42-2.9,5.5-5.1C73.14,32.42,72.18,31.62,70.82,31.67Z"/><path class="cls-1" d="M105.41,30.22c1.76,0,3.63.65,4.42,2.06,1.59,2.81-2.49,7.21-6.18,6.55-.34-.09-.23-.42.06-.47a6.22,6.22,0,0,0,3.85-1.68c.85-.85,2.1-2.67.91-3.65-1.7-1.46-4.48.46-5.9,1.26-6.75,3.93-10.15,11.8-7.2,14.65,1.87,1.88,5.56,1.22,7.83.33a37.16,37.16,0,0,0,10.71-6.51c.34-.28.8.14.46.38-4.26,3.23-8.23,6.83-14.18,8-4.65.84-8.79-1-9.07-6.42-.34-7,8.73-14.09,13.72-14.46Z"/><path class="cls-1" d="M117.54,37.85a4.26,4.26,0,0,1,1.36.19c3,.84,3.74,3.79,3.35,6.36a8.09,8.09,0,0,0,3.06-1.64c.4-.32,1,.19.62.52a9.31,9.31,0,0,1-3.85,1.87c-.51,2.25-2.33,4.73-5,5.15-4.48.66-6.63-5.06-3.34-8.15C113,40.05,114.93,37.85,117.54,37.85Zm-.23.51a3.28,3.28,0,0,0-2.21.85,2.35,2.35,0,0,0-.85,2.48c1-.71,2.33-1.08,2.89.32.23.52-.17,1-.73,1.17l-.51.57a8.17,8.17,0,0,0,5.38.89C122.08,40.7,119.64,38.36,117.31,38.36Zm-1.75,6c-1.31,2.29-.57,5.34,2.26,4.49a5,5,0,0,0,3.24-3.46A8.5,8.5,0,0,1,115.56,44.31Z"/><path class="cls-1" d="M150.88,35.79a.27.27,0,0,1,.17,0c4.08.29,1.13,9.41,1.36,12.55.06.66.17,3.37,1.64,2.67,2.16-.47,2.61-7,4.71-8.33.4-.24.8.32.4.51-2.67,2.76-2,6.79-4.65,8.66-3.12,2.25-5.67-4.77-5.22-10,.46-5.76.46-3.93.46-4.68-2.39,2.48-4,5.2-3.63,11,0,.65-1,.89-1.48.51A9.76,9.76,0,0,1,141.3,44c-1.42,3.79-1.93,4.63-2.84,5-2.27.89-4-2.06-4.42-3.37-.85-2.49-.4-4.4-.23-6.75.06-.6.29-1.07-.51-.6-2.1,1.12-3.8,5.57-4.36,7.39.68,4-3,1.88-4.09-2.43-1-3.89.91-7,3.35-6,.68.28,1,.79.91,1.17-.17,1.21-.91,1.49-.74,4.4a9.46,9.46,0,0,0,.4,2.06c1.3-3.7,4.31-10.4,7.37-7.68,1.7,1.54.34,5.34.51,7.91,0,1,.51,3.14,1.76,3,.39-.05.79-.7,1-1A10.58,10.58,0,0,0,141,42.9c-.51-2.52-.17-6.69,2.9-6.13.62.14,1.07.75.85,1.22-.8,2-.34,5.43.28,7.44a18.66,18.66,0,0,1,2.78-7.11C148.44,37.43,149.41,35.79,150.88,35.79Z"/><path class="cls-1" d="M162.73,37.66a3.16,3.16,0,0,1,2.89,1.73c1.19,2.81-2.1,5.43-5.27,5.29-.28,1.41-.45,2.91.51,4,1.19,1.31,2.95.94,4.37.14a13.21,13.21,0,0,0,5-6c.17-.33.74-.09.57.19-1.59,3-3.74,7.58-8.56,7.63s-6.18-5-4.94-8.15A8.78,8.78,0,0,1,161.26,38,3.11,3.11,0,0,1,162.73,37.66Zm.91,2.15a1.59,1.59,0,0,0-.91.33A6.33,6.33,0,0,0,160.52,44a4.36,4.36,0,0,0,3.12-1.08C165.11,41.55,164.66,39.81,163.64,39.81Z"/><path class="cls-1" d="M175.77,36.82c3.12,0,5.22,3,2.1,5.29a.39.39,0,0,1-.68-.28c.17-.85-.06-2.77-1.59-2.34-2.27.65-5.27,7.53-1.13,9.55,1.58.79,3.46-.38,4.59-1.22a11.48,11.48,0,0,0,4.37-4.92c.17-.46,1-.14.73.28-1.81,2.58-4,6.61-8.11,7.12-3.68.47-6.12-2.57-6.69-5.2A7.13,7.13,0,0,1,174.58,37,4.92,4.92,0,0,1,175.77,36.82Z"/><path class="cls-1" d="M185.69,30c1.14-.05,2.33.7,1.88,1.87a4.68,4.68,0,0,0-.35,1.22c4.43.47,5.28-.61,7.15-1.17,1-.28-.17,2.71-7.37,2a81,81,0,0,0-.57,13.25c.12,1.08.34,3,1.7,3.56,2.89,1.26,3.06-4.07,6.64-8,.28-.32.9,0,.62.33-2.27,2.53-2.55,4.54-4.42,7.3-1.48,2.2-4,2.16-5.79.19-2.43-2.71-2.72-6.08-2.6-9.31a76.36,76.36,0,0,1,.79-7.82,18.46,18.46,0,0,0-6.58-.1c-.17,0-1.47.52-1.42.52a.29.29,0,0,1,.06.56c-1.53.84-3.23-2.48,3.91-2.39a26.09,26.09,0,0,1,4.2.47,9.9,9.9,0,0,1,.4-1.4A1.78,1.78,0,0,1,185.69,30Z"/><line class="cls-3" x1="178.53" y1="87.97" x2="125.12" y2="87.97"/><line class="cls-3" x1="67.73" y1="87.97" x2="18.99" y2="87.97"/></g></g></svg>